Coordinates
version=1
nRows=7
nColumns=40
inDegrees=yes

Units are S.I. units (second, meters, Newtons, ...)
Angles are in degrees.

endheader
time	pelvis_tilt	pelvis_list	pelvis_rotation	pelvis_tx	pelvis_ty	pelvis_tz	hip_flexion_r	hip_adduction_r	hip_rotation_r	knee_angle_r	knee_angle_r_beta	ankle_angle_r	subtalar_angle_r	mtp_angle_r	hip_flexion_l	hip_adduction_l	hip_rotation_l	knee_angle_l	knee_angle_l_beta	ankle_angle_l	subtalar_angle_l	mtp_angle_l	lumbar_extension	lumbar_bending	lumbar_rotation	arm_flex_r	arm_add_r	arm_rot_r	elbow_flex_r	pro_sup_r	wrist_flex_r	wrist_dev_r	arm_flex_l	arm_add_l	arm_rot_l	elbow_flex_l	pro_sup_l	wrist_flex_l	wrist_dev_l
     47.47000000	     -2.68319210	     -3.80015790	     -0.18473485	      1.09287492	      0.93044514	      0.45284976	     17.28290559	     -0.17456900	     -9.79405895	     19.62842801	     19.62842801	      7.37139917	      0.79606205	     -1.64071955	      3.46737631	    -10.40957261	    -11.83506569	     28.52417125	     28.52417125	     16.93061730	     -7.51515260	     -2.31799617	     -9.46969177	      4.31557687	     -0.10964370	     -0.88820770	    -17.68873425	     -5.00776001	     47.85689760	     45.29399842	      0.00000000	      0.00000000	      8.91392522	    -12.21182205	    -11.66762298	     50.27045609	     46.63644074	      0.00000000	      0.00000000
     47.48371429	     -2.75172998	     -3.87144468	      0.21678148	      1.09285578	      0.93062083	      0.45602213	     16.87834788	      0.05113074	    -10.19764904	     19.51598707	     19.51598707	      7.70187614	      0.80529367	     -1.72253144	      5.16903466	    -11.00757557	    -10.40086169	     31.67372900	     31.67372900	     13.97995970	    -10.28247140	     -6.67149975	     -9.47753692	      4.45545508	     -0.00899795	     -0.96872565	    -18.59878173	     -3.91084196	     52.05410014	     45.11783051	      0.00000000	      0.00000000	      8.50906540	    -11.74953999	    -12.83094039	     49.16055797	     46.73587577	      0.00000000	      0.00000000
     47.49742857	     -2.78224852	     -3.97921323	      0.64500173	      1.09267416	      0.93078312	      0.45907103	     16.38805762	      0.31458015	    -10.65496007	     19.30854114	     19.30854114	      7.95780693	      0.88616627	     -1.97536789	      7.20733241	    -11.68484246	     -8.97698903	     35.48604543	     35.48604543	     11.82328473	    -12.34170482	     -8.55771509	     -9.49434464	      4.61951571	      0.02071753	     -0.13408645	    -19.10281596	     -3.65380394	     53.79283904	     45.08151365	      0.00000000	      0.00000000	      8.00706446	    -11.62508336	    -12.91108577	     48.10371998	     46.73024977	      0.00000000	      0.00000000
     47.51114286	     -2.78573649	     -4.14590314	      1.09700450	      1.09230054	      0.93083875	      0.46195258	     15.87390727	      0.64107107	    -11.11058289	     19.08833680	     19.08833680	      8.24491967	      0.94037999	     -2.07164408	      9.49691500	    -12.41183279	     -7.53435426	     39.69649504	     39.69649504	     10.16273895	    -13.68505268	     -8.81130903	     -9.55338101	      4.84261868	      0.05538673	      0.99926949	    -19.47590905	     -3.81400742	     54.74394471	     45.06495930	      0.00000000	      0.00000000	      7.35601990	    -11.51695291	    -12.87376761	     47.47898436	     46.71401256	      0.00000000	      0.00000000
     47.52485714	     -2.83488156	     -4.20474110	      1.54870689	      1.09165141	      0.93075244	      0.46455419	     15.48944843	      0.82327779	    -11.54205626	     18.98032071	     18.98032071	      8.51433049	      0.98038339	     -2.26990470	     11.96523207	    -12.82770060	     -5.88142774	     43.89410713	     43.89410713	      8.26145835	    -15.22393295	     -8.60746838	     -9.59644551	      4.94872836	     -0.02521957	      2.05622552	    -19.92605474	     -3.75511121	     56.39979729	     45.01663970	      0.00000000	      0.00000000	      6.76437601	    -11.49038234	    -12.91687239	     46.52997256	     46.70331171	      0.00000000	      0.00000000
     47.53857143	     -2.66878758	     -4.38378369	      1.97621578	      1.09098651	      0.93082212	      0.46699870	     14.88217725	      1.14288263	    -11.98021155	     18.87733881	     18.87733881	      8.83655315	      1.02973991	     -2.42120138	     14.24323748	    -13.34378213	     -4.36559500	     47.98708195	     47.98708195	      6.47850853	    -16.15240581	     -8.29259497	     -9.91620814	      5.20893596	      0.26709144	      3.18695169	    -20.54677115	     -3.80724134	     57.45396647	     44.99110590	      0.00000000	      0.00000000	      6.34054406	    -11.28590791	    -12.91012957	     45.91923407	     46.69221086	      0.00000000	      0.00000000
     47.55228571	     -2.71850610	     -4.36854324	      2.41662075	      1.09008478	      0.93061263	      0.46902090	     14.54669657	      1.19549212	    -12.41787812	     18.81659361	     18.81659361	      9.06012127	      1.17622244	     -3.04854950	     16.92001576	    -13.37368378	     -2.65966532	     52.17498627	     52.17498627	      6.22560899	    -16.37373053	     -3.91958830	     -9.98430939	      5.32232288	      0.68332701	      3.12113656	    -21.91869373	     -2.44617433	     61.40514317	     44.83904801	      0.00000000	      0.00000000	      6.50734514	    -10.90651930	    -13.33752417	     43.49093779	     46.71102743	      0.00000000	      0.00000000
